#!OML:ASF F:\VICON\USERDATA\INSTALL\rory3\rory3.ASF
:FULLY-SPECIFIED
:DEGREES
2892
root 1.03075 16.4147 -0.612923 3.91696 10.552 6.66385
lowerback 9.62233 0.199561 3.99856
upperback 3.11609 1.02122 10.7684
thorax -2.27452 0.521033 9.08637
lowerneck -21.0912 -8.44097 -8.11488
upperneck 24.0842 -10.5399 4.72523
head 12.1301 -4.8294 1.32295
rclavicle -2.14687e-014 -4.77083e-014
rhumerus -373.451 22.9643 -437.002
rradius 92.5784
rwrist -1.24772
rhand -14.1616 22.6981
rfingers 7.12502
rthumb 11.9733 -6.93947
lclavicle -2.14687e-014 -4.77083e-014
lhumerus 107.986 -82.143 -81.3092
lradius 58.3118
lwrist -0.118839
lhand -23.7738 15.7843
lfingers 7.12502
lthumb 2.69583 45.747
rfemur -18.5828 -3.89539 7.61576
rtibia 47.2819
rfoot -27.9715 -10.5853
rtoes -20.4758
lfemur -21.1393 -8.04609 -28.5854
ltibia 42.2786
lfoot -20.8416 -8.72441
ltoes -4.16249
2893
root 1.04693 16.411 -0.611921 3.99525 10.472 6.80502
lowerback 9.65976 0.151578 4.05541
upperback 3.06152 0.978793 10.9119
thorax -2.34886 0.501392 9.22262
lowerneck -21.1679 -8.39099 -7.99713
upperneck 24.2539 -10.5339 4.79082
head 12.2076 -4.80283 1.32638
rclavicle 1.43125e-014 5.40694e-014
rhumerus -373.374 22.8727 -437.388
rradius 92.3397
rwrist -1.08019
rhand -14.0109 22.8163
rfingers 7.12502
rthumb 12.1185 -6.81275
lclavicle 1.43125e-014 5.40694e-014
lhumerus 106.821 -82.2499 -80.1182
lradius 58.2396
lwrist -0.245183
lhand -23.9009 15.4625
lfingers 7.12502
lthumb 2.57306 45.4267
rfemur -18.7068 -3.76001 7.4118
rtibia 47.4238
rfoot -28.0341 -10.6825
rtoes -20.494
lfemur -21.1794 -7.84446 -28.7889
ltibia 42.2465
lfoot -20.8367 -8.817
ltoes -4.20781
2894
root 1.05809 16.4159 -0.609354 4.0881 10.3942 6.86318
lowerback 9.60828 0.123323 4.18033
upperback 3.03597 0.954374 11.0196
thorax -2.3437 0.489512 9.27447
lowerneck -21.1508 -8.3722 -7.85944
upperneck 24.2073 -10.5903 4.91718
head 12.1896 -4.79889 1.34268
rclavicle 3.18055e-015 -7.63333e-014
rhumerus -373.308 22.737 -437.791
rradius 92.0897
rwrist -0.529893
rhand -14.3164 22.9593
rfingers 7.12502
rthumb 11.8241 -6.68691
lclavicle 3.18055e-015 -7.63333e-014
lhumerus 105.879 -82.1313 -79.1951
lradius 58.1935
lwrist -0.316532
lhand -24.0931 15.3095
lfingers 7.12502
lthumb 2.38746 45.2759
rfemur -18.8119 -3.53458 7.3398
rtibia 47.4665
rfoot -28.0403 -10.831
rtoes -20.4011
lfemur -21.2155 -7.68507 -28.8703
ltibia 42.1491
lfoot -20.7677 -8.99899
ltoes -3.87259
2895
root 1.06931 16.42 -0.604873 4.25552 10.3015 7.04577
lowerback 9.45246 0.118324 4.26368
upperback 2.94405 0.946618 10.9842
thorax -2.3514 0.486154 9.18505
lowerneck -20.9214 -8.34424 -7.63187
upperneck 24.1375 -10.6938 5.0944
head 12.1224 -4.80613 1.3628
rclavicle 1.82882e-014 6.36111e-015
rhumerus -373.389 22.5177 -438.288
rradius 91.8571
rwrist 0.0943727
rhand -14.7497 23.0497
rfingers 7.12502
rthumb 11.4062 -6.62002
lclavicle 1.82882e-014 6.36111e-015
lhumerus 106.136 -81.8671 -79.5353
lradius 58.2559
lwrist -0.231723
lhand -24.386 15.4808
lfingers 7.12502
lthumb 2.10456 45.4501
rfemur -18.9416 -3.36613 7.10835
rtibia 47.4423
rfoot -28.1134 -10.7939
rtoes -20.1018
lfemur -21.2434 -7.54415 -29.0898
ltibia 41.9732
lfoot -20.5984 -9.29256
ltoes -2.90545
2896
root 1.07988 16.4237 -0.600594 4.33443 10.2107 7.27584
lowerback 9.38691 0.165008 4.40722
upperback 2.83 1.02138 10.8368
thorax -2.44026 0.524298 8.92445
lowerneck -20.5575 -8.40238 -7.42802
upperneck 24.0312 -10.9511 5.38778
head 12.0358 -4.87234 1.40668
rclavicle -1.59028e-015 -3.49861e-014
rhumerus -373.654 22.0837 -438.796
rradius 91.7508
rwrist 0.718246
rhand -14.84 23.1503
rfingers 7.12502
rthumb 11.3191 -6.5243
lclavicle -1.59028e-015 -3.49861e-014
lhumerus 107.241 -81.3727 -80.6525
lradius 58.3686
lwrist -0.114444
lhand -24.5998 15.6766
lfingers 7.12502
lthumb 1.8981 45.6479
rfemur -18.9257 -3.21235 6.8152
rtibia 47.3616
rfoot -28.1636 -10.7741
rtoes -19.7539
lfemur -21.1405 -7.41491 -29.3767
ltibia 41.7231
lfoot -20.344 -9.63337
ltoes -1.48835
2897
root 1.08966 16.4308 -0.594371 4.34297 10.2102 7.44233
lowerback 9.36998 0.153982 4.58697
upperback 2.75827 1.02605 10.747
thorax -2.50259 0.526716 8.71758
lowerneck -20.3016 -8.46774 -7.40234
upperneck 23.9135 -11.1634 5.73421
head 11.9789 -4.92664 1.50229
rclavicle 5.56597e-015 -1.90833e-014
rhumerus -373.824 21.8954 -439.078
rradius 91.7042
rwrist 1.0844
rhand -14.7259 23.1993
rfingers 7.12502
rthumb 11.4291 -6.46918
lclavicle 5.56597e-015 -1.90833e-014
lhumerus 107.366 -80.9948 -80.6299
lradius 58.4672
lwrist -0.129715
lhand -24.4168 15.803
lfingers 7.12502
lthumb 2.07481 45.7727
rfemur -18.7688 -3.12173 6.61018
rtibia 47.2077
rfoot -28.1142 -10.962
rtoes -20.2116
lfemur -20.922 -7.3994 -29.5957
ltibia 41.4205
lfoot -20.3011 -9.57746
ltoes -1.9559
2898
root 1.09949 16.4416 -0.585343 4.38745 10.2123 7.60138
lowerback 9.24053 0.0672908 4.66009
upperback 2.7399 0.902384 10.7022
thorax -2.43332 0.46399 8.63772
lowerneck -20.2047 -8.43022 -7.31676
upperneck 23.8493 -11.1933 5.91772
head 11.9449 -4.91189 1.55509
rclavicle -7.95139e-015 1.90833e-014
rhumerus -373.731 22.032 -439.178
rradius 91.6139
rwrist 1.21632
rhand -14.3679 23.2333
rfingers 7.12502
rthumb 11.7744 -6.41574
lclavicle -7.95139e-015 1.90833e-014
lhumerus 106.46 -80.9036 -79.5515
lradius 58.5821
lwrist -0.31305
lhand -24.1636 15.8296
lfingers 7.12502
lthumb 2.31939 45.7968
rfemur -18.6039 -3.03319 6.41298
rtibia 46.9793
rfoot -28.0376 -11.1411
rtoes -20.4127
lfemur -20.7161 -7.42925 -29.8069
ltibia 41.1031
lfoot -20.3536 -9.22181
ltoes -3.68771
2899
root 1.10703 16.4566 -0.576702 4.39255 10.1982 7.56848
lowerback 9.12816 -0.0646954 4.84875
upperback 2.74729 0.729176 10.6963
thorax -2.34013 0.37601 8.53993
lowerneck -20.1807 -8.34575 -7.21249
upperneck 23.8175 -11.161 6.10655
head 11.9321 -4.86509 1.61525
rclavicle -5.40694e-014 -1.11319e-013
rhumerus -373.554 22.4373 -439.255
rradius 91.466
rwrist 1.42335
rhand -14.4839 23.1963
rfingers 7.12502
rthumb 11.6625 -6.45912
lclavicle -5.40694e-014 -1.11319e-013
lhumerus 105.636 -80.8851 -78.5869
lradius 58.6111
lwrist -0.439424
lhand -24.2938 15.7188
lfingers 7.12502
lthumb 2.19363 45.6872
rfemur -18.409 -2.89714 6.43962
rtibia 46.664
rfoot -27.9319 -11.2106
rtoes -20.3828
lfemur -20.5052 -7.46523 -29.7967
ltibia 40.7788
lfoot -20.2386 -9.20674
ltoes -3.42622
2900
root 1.11244 16.4719 -0.571205 4.39914 10.2613 7.47631
lowerback 9.05582 -0.215565 5.02335
upperback 2.71672 0.541703 10.7555
thorax -2.3096 0.282095 8.52621
lowerneck -20.1194 -8.27455 -7.27282
upperneck 23.8048 -11.1114 6.34176
head 11.9323 -4.82025 1.72275
rclavicle 1.59028e-014 5.40694e-014
rhumerus -373.49 22.9785 -439.172
rradius 91.3518
rwrist 1.74868
rhand -15.0029 22.9883
rfingers 7.12502
rthumb 11.162 -6.69482
lclavicle 1.59028e-014 5.40694e-014
lhumerus 105.353 -80.8907 -77.8752
lradius 58.4145
lwrist -0.524648
lhand -24.3835 15.4413
lfingers 7.12502
lthumb 2.10702 45.4106
rfemur -18.2073 -2.79105 6.54913
rtibia 46.3278
rfoot -27.8702 -11.2905
rtoes -20.1716
lfemur -20.3309 -7.58922 -29.7097
ltibia 40.4512
lfoot -20.1433 -9.03304
ltoes -3.93456
